<svg width="411" height="57" viewBox="0 0 411 57" fill="none" xmlns="http://www.w3.org/2000/svg">
<path d="M20.7499 56.4482C16.9048 56.4482 13.1756 55.9382 9.56224 54.9182C5.99517 53.8518 3.12298 52.4841 0.945679 50.815L4.76754 42.3305C6.85219 43.8605 9.33061 45.0891 12.2028 46.0164C15.075 46.9436 17.9472 47.4073 20.8194 47.4073C24.0158 47.4073 26.3784 46.9436 27.9072 46.0164C29.4359 45.0427 30.2003 43.7677 30.2003 42.1914C30.2003 41.0323 29.737 40.0818 28.8105 39.34C27.9303 38.5518 26.7722 37.9259 25.3361 37.4623C23.9463 36.9986 22.047 36.4886 19.6381 35.9323C15.932 35.0514 12.8977 34.1705 10.5351 33.2895C8.17247 32.4086 6.13414 30.9945 4.4201 29.0473C2.75238 27.1 1.91852 24.5036 1.91852 21.2582C1.91852 18.43 2.68289 15.88 4.21163 13.6082C5.74038 11.29 8.03349 9.45864 11.091 8.11409C14.1948 6.76954 17.9703 6.09727 22.4176 6.09727C25.5214 6.09727 28.5557 6.46818 31.5206 7.21C34.4854 7.95182 37.0796 9.01818 39.3033 10.4091L35.8288 18.9632C31.3353 16.4132 26.8417 15.1382 22.3481 15.1382C19.198 15.1382 16.8585 15.6482 15.3298 16.6682C13.8474 17.6882 13.1061 19.0327 13.1061 20.7018C13.1061 22.3709 13.9632 23.6227 15.6772 24.4573C17.4376 25.2455 20.1013 26.0336 23.6684 26.8218C27.3744 27.7027 30.4088 28.5836 32.7714 29.4645C35.134 30.3455 37.1491 31.7364 38.8168 33.6373C40.5309 35.5382 41.3879 38.1114 41.3879 41.3568C41.3879 44.1386 40.6004 46.6886 39.0253 49.0068C37.4966 51.2786 35.1803 53.0868 32.0765 54.4314C28.9727 55.7759 25.1971 56.4482 20.7499 56.4482ZM67.1469 47.4768C69.0925 47.4768 70.8066 47.1986 72.289 46.6423C73.8177 46.0395 75.2307 45.1123 76.5278 43.8605L82.2953 50.1195C78.7746 54.1532 73.6324 56.17 66.8689 56.17C62.6533 56.17 58.9241 55.3586 55.6813 53.7359C52.4385 52.0668 49.9369 49.7718 48.1765 46.8509C46.4162 43.93 45.536 40.615 45.536 36.9059C45.536 33.2432 46.393 29.9514 48.1071 27.0305C49.8674 24.0632 52.2532 21.7682 55.2644 20.1455C58.3218 18.4764 61.7499 17.6418 65.5486 17.6418C69.1157 17.6418 72.3585 18.4068 75.277 19.9368C78.1955 21.4205 80.5118 23.5995 82.2258 26.4741C83.9862 29.3023 84.8664 32.6636 84.8664 36.5582L57.21 41.9132C57.9976 43.7677 59.2252 45.1586 60.8929 46.0859C62.607 47.0132 64.6916 47.4768 67.1469 47.4768ZM65.5486 25.8482C62.8154 25.8482 60.5918 26.7291 58.8777 28.4909C57.1637 30.2527 56.2604 32.6868 56.1677 35.7932L74.3737 32.2464C73.8641 30.2991 72.8217 28.7459 71.2467 27.5868C69.6716 26.4277 67.7723 25.8482 65.5486 25.8482ZM110.22 56.17C106.236 56.17 102.646 55.3586 99.4493 53.7359C96.2992 52.0668 93.8207 49.7718 92.0141 46.8509C90.2537 43.93 89.3735 40.615 89.3735 36.9059C89.3735 33.1968 90.2537 29.8818 92.0141 26.9609C93.8207 24.04 96.2992 21.7682 99.4493 20.1455C102.646 18.4764 106.236 17.6418 110.22 17.6418C114.158 17.6418 117.586 18.4764 120.504 20.1455C123.469 21.7682 125.623 24.1095 126.967 27.1695L118.559 31.69C116.613 28.2591 113.81 26.5436 110.151 26.5436C107.325 26.5436 104.985 27.4709 103.132 29.3255C101.279 31.18 100.353 33.7068 100.353 36.9059C100.353 40.105 101.279 42.6318 103.132 44.4864C104.985 46.3409 107.325 47.2682 110.151 47.2682C113.857 47.2682 116.659 45.5527 118.559 42.1218L126.967 46.7118C125.623 49.6791 123.469 51.9973 120.504 53.6664C117.586 55.3355 114.158 56.17 110.22 56.17ZM143.562 23.1359C144.859 21.3277 146.596 19.96 148.773 19.0327C150.997 18.1055 153.545 17.6418 156.417 17.6418V27.6564C155.213 27.5636 154.402 27.5173 153.985 27.5173C150.881 27.5173 148.449 28.3982 146.689 30.16C144.928 31.8755 144.048 34.4718 144.048 37.9491V55.6136H133.208V18.1982H143.562V23.1359ZM181.355 47.4768C183.301 47.4768 185.015 47.1986 186.497 46.6423C188.026 46.0395 189.439 45.1123 190.736 43.8605L196.503 50.1195C192.983 54.1532 187.84 56.17 181.077 56.17C176.861 56.17 173.132 55.3586 169.889 53.7359C166.646 52.0668 164.145 49.7718 162.385 46.8509C160.624 43.93 159.744 40.615 159.744 36.9059C159.744 33.2432 160.601 29.9514 162.315 27.0305C164.075 24.0632 166.461 21.7682 169.472 20.1455C172.53 18.4764 175.958 17.6418 179.757 17.6418C183.324 17.6418 186.566 18.4068 189.485 19.9368C192.404 21.4205 194.72 23.5995 196.434 26.4741C198.194 29.3023 199.074 32.6636 199.074 36.5582L171.418 41.9132C172.206 43.7677 173.433 45.1586 175.101 46.0859C176.815 47.0132 178.9 47.4768 181.355 47.4768ZM179.757 25.8482C177.023 25.8482 174.8 26.7291 173.086 28.4909C171.372 30.2527 170.468 32.6868 170.376 35.7932L188.582 32.2464C188.072 30.2991 187.03 28.7459 185.455 27.5868C183.88 26.4277 181.98 25.8482 179.757 25.8482ZM228.875 53.8055C227.81 54.5936 226.489 55.1964 224.914 55.6136C223.386 55.9845 221.787 56.17 220.12 56.17C215.626 56.17 212.175 55.0341 209.766 52.7623C207.357 50.4905 206.153 47.1523 206.153 42.7477V9.92227H216.993V19.0327H226.235V27.3782H216.993V42.6086C216.993 44.185 217.387 45.4136 218.174 46.2945C218.962 47.1291 220.097 47.5464 221.579 47.5464C223.247 47.5464 224.729 47.0827 226.026 46.1555L228.875 53.8055ZM271.784 18.1982V55.6136H261.431V51.3018C258.744 54.5473 254.852 56.17 249.757 56.17C246.236 56.17 243.039 55.3818 240.167 53.8055C237.341 52.2291 235.118 49.9805 233.496 47.0595C231.875 44.1386 231.064 40.7541 231.064 36.9059C231.064 33.0577 231.875 29.6732 233.496 26.7523C235.118 23.8314 237.341 21.5827 240.167 20.0064C243.039 18.43 246.236 17.6418 249.757 17.6418C254.528 17.6418 258.257 19.1486 260.944 22.1623V18.1982H271.784ZM251.633 47.2682C254.366 47.2682 256.636 46.3409 258.443 44.4864C260.249 42.5855 261.153 40.0586 261.153 36.9059C261.153 33.7532 260.249 31.2495 258.443 29.395C256.636 27.4941 254.366 26.5436 251.633 26.5436C248.853 26.5436 246.56 27.4941 244.753 29.395C242.947 31.2495 242.043 33.7532 242.043 36.9059C242.043 40.0586 242.947 42.5855 244.753 44.4864C246.56 46.3409 248.853 47.2682 251.633 47.2682ZM256.149 3.385H267.824L255.246 13.3995H246.769L256.149 3.385ZM292.175 23.1359C293.472 21.3277 295.21 19.96 297.387 19.0327C299.611 18.1055 302.158 17.6418 305.031 17.6418V27.6564C303.826 27.5636 303.015 27.5173 302.599 27.5173C299.495 27.5173 297.063 28.3982 295.302 30.16C293.542 31.8755 292.662 34.4718 292.662 37.9491V55.6136H281.822V18.1982H292.175V23.1359ZM311.476 18.1982H322.316V55.6136H311.476V18.1982ZM316.896 12.9823C314.904 12.9823 313.282 12.4027 312.032 11.2436C310.781 10.0845 310.155 8.64727 310.155 6.93182C310.155 5.21636 310.781 3.77909 312.032 2.62C313.282 1.46091 314.904 0.881363 316.896 0.881363C318.888 0.881363 320.509 1.43773 321.76 2.55045C323.011 3.66318 323.636 5.05409 323.636 6.72318C323.636 8.53136 323.011 10.0382 321.76 11.2436C320.509 12.4027 318.888 12.9823 316.896 12.9823ZM370.317 18.1982V55.6136H359.963V51.3018C357.276 54.5473 353.385 56.17 348.289 56.17C344.768 56.17 341.572 55.3818 338.7 53.8055C335.874 52.2291 333.65 49.9805 332.029 47.0595C330.407 44.1386 329.597 40.7541 329.597 36.9059C329.597 33.0577 330.407 29.6732 332.029 26.7523C333.65 23.8314 335.874 21.5827 338.7 20.0064C341.572 18.43 344.768 17.6418 348.289 17.6418C353.061 17.6418 356.79 19.1486 359.477 22.1623V18.1982H370.317ZM350.165 47.2682C352.898 47.2682 355.168 46.3409 356.975 44.4864C358.782 42.5855 359.685 40.0586 359.685 36.9059C359.685 33.7532 358.782 31.2495 356.975 29.395C355.168 27.4941 352.898 26.5436 350.165 26.5436C347.386 26.5436 345.093 27.4941 343.286 29.395C341.479 31.2495 340.576 33.7532 340.576 36.9059C340.576 40.0586 341.479 42.5855 343.286 44.4864C345.093 46.3409 347.386 47.2682 350.165 47.2682ZM392.932 56.17C389.828 56.17 386.793 55.7991 383.829 55.0573C380.864 54.2691 378.501 53.2955 376.741 52.1364L380.354 44.3473C382.022 45.4136 384.037 46.2945 386.4 46.99C388.762 47.6391 391.078 47.9636 393.348 47.9636C397.935 47.9636 400.228 46.8277 400.228 44.5559C400.228 43.4895 399.602 42.7245 398.352 42.2609C397.101 41.7973 395.178 41.4032 392.584 41.0786C389.527 40.615 387.002 40.0818 385.01 39.4791C383.018 38.8764 381.281 37.81 379.798 36.28C378.362 34.75 377.644 32.5709 377.644 29.7427C377.644 27.3782 378.316 25.2918 379.659 23.4836C381.049 21.6291 383.041 20.1918 385.635 19.1718C388.276 18.1518 391.38 17.6418 394.947 17.6418C397.587 17.6418 400.205 17.9432 402.799 18.5459C405.439 19.1023 407.617 19.8905 409.331 20.9105L405.717 28.63C402.428 26.7755 398.838 25.8482 394.947 25.8482C392.63 25.8482 390.893 26.1727 389.735 26.8218C388.577 27.4709 387.998 28.3055 387.998 29.3255C387.998 30.4845 388.623 31.2959 389.874 31.7595C391.125 32.2232 393.117 32.6636 395.85 33.0809C398.908 33.5909 401.409 34.1473 403.355 34.75C405.3 35.3064 406.991 36.3495 408.427 37.8795C409.864 39.4095 410.582 41.5423 410.582 44.2777C410.582 46.5959 409.887 48.6591 408.497 50.4673C407.107 52.2755 405.069 53.6896 402.382 54.7095C399.741 55.6832 396.591 56.17 392.932 56.17Z" fill="#3077E2"/>
</svg>
